<?xml version="1.0" encoding="utf-8"?>
<!-- Generator: Adobe Illustrator 16.0.4, SVG Export Plug-In . SVG Version: 6.00 Build 0)  -->
<!DOCTYPE svg PUBLIC "-//W3C//DTD SVG 1.1//EN" "http://www.w3.org/Graphics/SVG/1.1/DTD/svg11.dtd">
<svg version="1.1" id="Layer_1" xmlns="http://www.w3.org/2000/svg" xmlns:xlink="http://www.w3.org/1999/xlink" x="0px" y="0px"
	 width="190px" height="400px" viewBox="0 0 190 400" enable-background="new 0 0 190 400" xml:space="preserve">
<g id="M">
	<polygon id="m" fill="#373C3C" points="140,50 110,20 110,45 140,75 170,45 170,100 190,100 190,25 190,0 	"/>
	<polygon id="M_1_" fill="#373C3C" points="50,50 0.001,0 0,0 0,25 0,25 0,25 0,100 20,100 20,45 50,75 80,45 80,100 100,100 
		100,25 100,0 	"/>
</g>
<g id="M2">
	<polygon id="m_1_" fill="#F6F3EF" points="140,150 110,120 110,145 140,175 170,145 170,200 190,200 190,125 190,100 	"/>
	<polygon id="M_3_" fill="#F6F3EF" points="50,150 0.001,100 0,100 0,125 0,125 0,125 0,200 20,200 20,145 50,175 80,145 80,200 
		100,200 100,125 100,100 	"/>
</g>
<g id="M3">
	<polygon id="m_2_" fill="#099872" points="140,250 110,220 110,245 140,275 170,245 170,300 190,300 190,225 190,200 	"/>
	<polygon id="M_2_" fill="#099872" points="50,250 0.001,200 0,200 0,225 0,225 0,225 0,300 20,300 20,245 50,275 80,245 80,300 
		100,300 100,225 100,200 	"/>
</g>
<g id="M4">
	<polygon id="m_3_" fill="#F0EAE3" points="140,350 110,320 110,345 140,375 170,345 170,400 190,400 190,325 190,300 	"/>
	<polygon id="M_4_" fill="#F0EAE3" points="50,350 0.001,300 0,300 0,325 0,325 0,325 0,400 20,400 20,345 50,375 80,345 80,400 
		100,400 100,325 100,300 	"/>
</g>
</svg>
